<svg width="35" height="35" viewBox="0 0 35 35" fill="none" xmlns="http://www.w3.org/2000/svg">
<path d="M2.40167 4.33292L6.7364 0L15.2887 8.54872L10.1925 13.6428C12.4477 18.9711 16.1967 22.7185 21.3515 24.8118L26.4477 19.7177L35 28.2518L30.6653 32.5847C29.113 34.1363 27.0042 35 24.7343 35C13.8682 35 -1.19374e-06 21.1376 -1.19374e-06 10.276C-1.19374e-06 8.00711 0.864015 5.89921 2.41632 4.33292H2.40167ZM24.7197 33.5362C26.6088 33.5362 28.3368 32.8335 29.6255 31.5454L32.9205 28.2518L26.4477 21.7817L21.7176 26.5098L21.2782 26.3342C15.3619 24.0799 11.1151 19.8348 8.66946 13.7307L8.49372 13.2769L13.2385 8.53409L6.7364 2.07863L3.44142 5.37223C2.15272 6.64576 1.44979 8.3877 1.44979 10.276C1.44979 20.2739 14.7176 33.5362 24.7197 33.5362Z" fill="white"/>
</svg>
