<svg width="35" height="35" viewBox="0 0 35 35" fill="none" xmlns="http://www.w3.org/2000/svg">
<g clip-path="url(#clip0_1310_352)">
<path d="M26.2192 34.0652C26.3329 34.4517 26.1127 34.8556 25.7248 34.9694C25.6563 34.9898 25.5877 35 25.5192 35C25.2027 35 24.9125 34.7944 24.8206 34.4765C23.9004 31.3498 20.8904 29.1667 17.4983 29.1667C14.1063 29.1667 11.0963 31.3498 10.176 34.4765C10.0638 34.8644 9.65542 35.0831 9.27188 34.9708C8.88397 34.8571 8.66376 34.4531 8.77751 34.0667C9.87709 30.3231 13.4631 27.7098 17.4969 27.7098C21.5306 27.7098 25.1181 30.3231 26.2163 34.0667L26.2192 34.0652ZM34.9692 20.9402C33.8696 17.1967 30.2835 14.5833 26.2498 14.5833C25.8473 14.5833 25.5206 14.91 25.5206 15.3125C25.5206 15.715 25.8473 16.0417 26.2498 16.0417C29.6404 16.0417 32.6519 18.2248 33.5721 21.3515C33.664 21.6708 33.9556 21.875 34.2706 21.875C34.3392 21.875 34.4077 21.8648 34.4763 21.8444C34.8642 21.7306 35.0829 21.3267 34.9692 20.9402ZM9.47897 15.3125C9.47897 14.91 9.1523 14.5833 8.7498 14.5833C4.71459 14.5833 1.12855 17.1967 0.030425 20.9402C-0.083325 21.3267 0.136883 21.7306 0.5248 21.8444C0.593342 21.8648 0.661883 21.875 0.730425 21.875C1.04688 21.875 1.33709 21.6694 1.42897 21.3515C2.34917 18.2248 5.35917 16.0417 8.75126 16.0417C9.15376 16.0417 9.47897 15.715 9.47897 15.3125ZM17.4998 13.125C20.7169 13.125 23.3331 15.7413 23.3331 18.9583C23.3331 22.1754 20.7169 24.7917 17.4998 24.7917C14.2827 24.7917 11.6665 22.1754 11.6665 18.9583C11.6665 15.7413 14.2827 13.125 17.4998 13.125ZM13.1248 18.9583C13.1248 21.3704 15.0877 23.3333 17.4998 23.3333C19.9119 23.3333 21.8748 21.3704 21.8748 18.9583C21.8748 16.5463 19.9119 14.5833 17.4998 14.5833C15.0877 14.5833 13.1248 16.5463 13.1248 18.9583ZM20.4165 5.83333C20.4165 2.61625 23.0327 0 26.2498 0C29.4669 0 32.0831 2.61625 32.0831 5.83333C32.0831 9.05042 29.4669 11.6667 26.2498 11.6667C23.0327 11.6667 20.4165 9.05042 20.4165 5.83333ZM21.8748 5.83333C21.8748 8.24542 23.8377 10.2083 26.2498 10.2083C28.6619 10.2083 30.6248 8.24542 30.6248 5.83333C30.6248 3.42125 28.6619 1.45833 26.2498 1.45833C23.8377 1.45833 21.8748 3.42125 21.8748 5.83333ZM2.91647 5.83333C2.91647 2.61625 5.53272 0 8.7498 0C11.9669 0 14.5831 2.61625 14.5831 5.83333C14.5831 9.05042 11.9669 11.6667 8.7498 11.6667C5.53272 11.6667 2.91647 9.05042 2.91647 5.83333ZM4.3748 5.83333C4.3748 8.24542 6.33772 10.2083 8.7498 10.2083C11.1619 10.2083 13.1248 8.24542 13.1248 5.83333C13.1248 3.42125 11.1619 1.45833 8.7498 1.45833C6.33772 1.45833 4.3748 3.42125 4.3748 5.83333Z" fill="white"/>
</g>
<defs>
<clipPath id="clip0_1310_352">
<rect width="35" height="35" fill="white"/>
</clipPath>
</defs>
</svg>
