<svg width="25" height="25" viewBox="0 0 25 25" fill="none" xmlns="http://www.w3.org/2000/svg">
<path d="M23.913 11.4141H1.08694C0.486633 11.4141 0 11.9007 0 12.501C0 13.1013 0.486633 13.5879 1.08694 13.5879H23.913C24.5133 13.5879 24.9999 13.1013 24.9999 12.501C25 11.9007 24.5133 11.4141 23.913 11.4141Z" fill="white"/>
<path d="M1.08694 5.97856H23.913C24.5133 5.97856 24.9999 5.49193 24.9999 4.89163C24.9999 4.29132 24.5133 3.80469 23.913 3.80469H1.08694C0.486633 3.80469 0 4.29132 0 4.89163C0 5.49193 0.486633 5.97856 1.08694 5.97856Z" fill="white"/>
<path d="M23.913 19.0215H1.08694C0.486633 19.0215 0 19.5082 0 20.1085C0 20.7088 0.486633 21.1954 1.08694 21.1954H23.913C24.5133 21.1954 24.9999 20.7088 24.9999 20.1085C25 19.5082 24.5133 19.0215 23.913 19.0215Z" fill="white"/>
</svg>
