<svg width="15" height="15" viewBox="0 0 15 15" fill="none" xmlns="http://www.w3.org/2000/svg">
<g clip-path="url(#clip0_1291_196)">
<path d="M6.17352 11.3263C6.90553 12.0587 8.0927 12.0591 8.82518 11.3271C8.82548 11.3268 8.82574 11.3266 8.82603 11.3263L10.8329 9.3194C11.0644 9.06337 11.0445 8.66813 10.7885 8.43662C10.5501 8.22108 10.1871 8.22147 9.94916 8.4375L8.12042 10.2669L8.12478 0.62502C8.12475 0.279814 7.84494 0 7.49976 0C7.15459 0 6.87477 0.279814 6.87477 0.62499L6.86915 10.255L5.0504 8.4375C4.80618 8.19346 4.41038 8.1936 4.16634 8.43782C3.92229 8.68204 3.92244 9.07784 4.16666 9.32189L6.17352 11.3263Z" fill="black"/>
<path d="M14.375 10C14.0298 10 13.75 10.2798 13.75 10.625V13.125C13.75 13.4702 13.4702 13.75 13.125 13.75H1.875C1.52982 13.75 1.25001 13.4702 1.25001 13.125V10.625C1.25001 10.2798 0.970195 10 0.62502 10C0.279814 10 0 10.2798 0 10.625V13.125C0 14.1605 0.839473 15 1.875 15H13.125C14.1605 15 15 14.1605 15 13.125V10.625C15 10.2798 14.7202 10 14.375 10Z" fill="black"/>
</g>
<defs>
<clipPath id="clip0_1291_196">
<rect width="15" height="15" fill="white"/>
</clipPath>
</defs>
</svg>
