<?xml version="1.0" encoding="UTF-8" standalone="no" ?>
<!DOCTYPE svg PUBLIC "-//W3C//DTD SVG 1.1//EN" "http://www.w3.org/Graphics/SVG/1.1/DTD/svg11.dtd">
<svg xmlns="http://www.w3.org/2000/svg" xmlns:xlink="http://www.w3.org/1999/xlink" version="1.1" width="600" height="400" viewBox="0 0 640 590" xml:space="preserve">
<desc>Created with Fabric.js 5.3.0</desc>
<defs>
</defs>
<g transform="matrix(2.064260864 0 0 1.3404142101 309.2822528626 364.9868028913)" id="ju_ho0MwTBnlWTUCar2Ks"  >
<path style="stroke: rgb(255,255,255); stroke-width: 1; stroke-dasharray: none; stroke-linecap: butt; stroke-dashoffset: 0; stroke-linejoin: miter; stroke-miterlimit: 4; fill: rgb(255,255,255); fill-rule: nonzero; opacity: 1;" vector-effect="non-scaling-stroke"  transform=" translate(-0.0000092457, -0.0000054223)" d="M -98.77958 9.66661 L -98.77958 9.66661 L -98.77958 9.66661 C -100.04504 7.31646 -100.73761999999999 4.35933 -100.73761999999999 1.306280000000001 L -100.73761999999999 1.306280000000001 L -100.73761999999999 1.306280000000001 C -100.73761999999999 0.658440000000001 -100.57351999999999 0.03616000000000108 -100.28021 -0.42823999999999907 L -99.26065 -2.042539999999999 L -99.26065 -2.042539999999999 C -98.02783 -3.9944999999999986 -96.4927 -5.4311099999999985 -94.79981 -6.2170999999999985 L -91.23321 -7.873019999999999 L -91.23321 -7.873019999999999 C -90.11314 -8.393049999999999 -88.96182 -8.737479999999998 -87.79679 -8.90106 L -70.66769 -11.30608 L -8.545999999999992 -15.00983 L 69.51907000000001 -15.179709999999998 L 89.93891000000002 -14.653969999999997 L 93.79001000000002 -13.763989999999998 L 93.79001000000002 -13.763989999999998 C 94.74288000000003 -13.543779999999998 95.67931000000003 -13.179299999999998 96.58569000000003 -12.675819999999998 L 98.49696000000003 -11.614149999999999 L 98.49696000000003 -11.614149999999999 C 98.86312000000002 -11.410749999999998 99.19969000000003 -11.098289999999999 99.48745000000002 -10.694589999999998 L 100.38066000000002 -9.441499999999998 L 100.38066000000002 -9.441499999999998 C 100.71778000000002 -8.968549999999997 100.82880000000002 -8.222959999999997 100.65916000000001 -7.571049999999998 L 100.60987000000002 -7.381639999999998 L 100.60987000000002 -7.381639999999998 C 100.22514000000001 -5.903149999999998 99.39087000000002 -4.812949999999998 98.38100000000001 -4.469009999999998 L 94.53304000000001 -3.1584899999999982 L 94.53304000000001 -3.1584899999999982 C 93.04402000000002 -2.6513699999999982 91.52095000000001 -2.420379999999998 89.99629000000002 -2.4704499999999983 L 69.17782000000001 -3.1541799999999984 L 49.19289000000001 -3.1541799999999984 L 24.40416000000001 -2.0274199999999984 L -1.6515799999999885 0.8168300000000017 L -41.77098999999999 6.949500000000002 C -41.77098999999999 6.949500000000002 -42.89968999999999 7.137350000000002 -43.46836999999999 7.231990000000002 C -64.95582999999999 10.808130000000002 -75.16726999999999 12.507620000000003 -90.78017 15.106060000000003 L -90.78017 15.106060000000003 C -93.14391 15.499460000000003 -95.50303 14.304330000000004 -97.2535 11.826670000000004 z" stroke-linecap="round" />
</g>
<g transform="matrix(1.5193102167 0 0 1.7878834248 561.2265669322 353.0567496976)" id="kFmgSxSPS8rpKEhqAixC2"  >
<path style="stroke: rgb(255,255,255); stroke-width: 1; stroke-dasharray: none; stroke-linecap: butt; stroke-dashoffset: 0; stroke-linejoin: miter; stroke-miterlimit: 4; fill: rgb(255,255,255); fill-rule: nonzero; opacity: 1;" vector-effect="non-scaling-stroke"  transform=" translate(0.0000069316, 7.781e-7)" d="M 0.13319 -6.02017 C -2.52369 -6.176480000000001 -5.98456 -6.4319500000000005 -8.43818 -5.40082 C -9.244549999999998 -5.061940000000001 -9.85291 -4.3211 -10.20009 -3.5887700000000002 C -10.36413 -3.24275 -9.86345 -3.8285 -10.20009 -3.5887700000000002 C -10.20009 -3.5887700000000002 -10.608229999999999 -2.41913 -10.809249999999999 -1.8430400000000002 L -10.809249999999999 -1.8430400000000002 C -11.05248 -1.1460000000000004 -11.12619 -0.4141800000000002 -11.025909999999998 0.30783999999999967 L -10.865769999999998 1.4608799999999997 L -10.865769999999998 1.4608799999999997 C -10.833789999999997 1.6911399999999996 -10.754209999999997 1.9147999999999996 -10.630689999999998 2.1215399999999995 L -10.482589999999998 2.3694399999999995 L -10.482589999999998 2.3694399999999995 C -10.114209999999998 2.9860499999999996 -9.620979999999998 3.5427399999999993 -9.025469999999999 4.01403 L -8.964649999999999 4.0621599999999995 L -8.964649999999999 4.0621599999999995 C -8.05439 4.78255 -6.928799999999999 5.2767 -5.710679999999999 5.49069 L -3.793979999999999 5.8274 L -3.793979999999999 5.8274 C -2.051509999999999 6.13351 -0.2675799999999988 6.23335 1.5070800000000006 6.1241 L 3.6742900000000005 5.99068 L 5.501110000000001 5.63977 L 5.501110000000001 5.63977 C 7.1174100000000005 5.3293 8.588640000000002 4.61758 9.727900000000002 3.5950200000000003 L 9.797320000000001 3.5327100000000002 L 9.797320000000001 3.5327100000000002 C 10.1644 3.2032300000000005 10.460640000000001 2.8216 10.672580000000002 2.4051500000000003 C 10.772700000000002 2.2084200000000003 10.975970000000002 1.8090000000000004 10.975970000000002 1.8090000000000004 C 11.372520000000002 0.07352000000000047 10.459980000000002 -1.8940999999999997 9.111270000000001 -3.0560399999999994 C 8.8672 -3.2663099999999994 8.260710000000001 -3.7122199999999994 7.980370000000001 -3.8709299999999995 C 7.980370000000001 -3.8709299999999995 6.9323500000000005 -4.284859999999999 6.416170000000001 -4.488729999999999 L 6.416170000000001 -4.488729999999999 C 4.882850000000001 -5.094329999999999 3.265230000000001 -5.5319899999999995 1.6021400000000012 -5.7912099999999995 C 1.1173900000000012 -5.866759999999999 0.13319000000000125 -6.02016 0.13319000000000125 -6.02016 z" stroke-linecap="round" />
</g>
<g transform="matrix(1.8084885905 0 0 1.8084885905 60.7031758996 290.4930725566)" id="UJkvO8KNPKHWzsaheos-s"  >
<path style="stroke: rgb(255,255,255); stroke-width: 1; stroke-dasharray: none; stroke-linecap: butt; stroke-dashoffset: 0; stroke-linejoin: miter; stroke-miterlimit: 4; fill: rgb(255,255,255); fill-rule: nonzero; opacity: 1;" vector-effect="non-scaling-stroke"  transform=" translate(-0.0000090427, 0.0000030582)" d="M -18.93029 -20.17224 L -23.24764 2.3491800000000005 L -23.24764 2.3491800000000005 C -23.274160000000002 2.4875000000000007 -23.2875 2.6280200000000002 -23.2875 2.7688500000000005 L -23.2875 4.07669 L -24.50966 25.76092 C -24.57097 28.581139999999998 -23.8144 34.506949999999996 -22.41767 36.95777 C -20.95673 39.52126 -20.68449 39.30697 -18.078760000000003 40.69114999999999 L -16.819770000000002 40.69114999999999 C -15.280820000000002 40.17885999999999 -14.619310000000002 40.119749999999996 -13.591980000000001 38.86458999999999 C -12.616410000000002 37.67266999999999 -12.442710000000002 35.676219999999994 -12.211440000000001 34.15341999999999 C -12.211440000000001 34.15341999999999 -12.211440000000001 27.32140999999999 -12.211440000000001 23.956389999999992 L -12.211440000000001 23.956389999999992 C -12.211440000000001 20.971089999999993 -11.946640000000002 17.991669999999992 -11.420150000000001 15.053149999999992 L -8.64563 -0.4324500000000082 L -2.9485200000000003 -26.839360000000006 L 15.49706 -28.484830000000006 L 15.49706 -28.484830000000006 C 18.08709 -28.715880000000006 20.67604 -28.030450000000005 22.81244 -26.548080000000006 L 23.85108 -25.827400000000004 L 23.85108 -25.827400000000004 C 25.29123 -24.828130000000005 27.23629 -24.983260000000005 28.49985 -26.198170000000005 L 28.571469999999998 -26.267030000000005 L 28.571469999999998 -26.267030000000005 C 29.55005 -27.207940000000004 30.158969999999997 -28.468420000000005 30.28777 -29.819840000000006 L 30.28777 -29.819840000000006 L 30.28777 -29.819840000000006 C 30.407269999999997 -31.080310000000008 30.134939999999997 -32.346940000000004 29.507939999999998 -33.44691 C 29.25848 -33.884550000000004 29.105479999999996 -34.190690000000004 28.86406 -34.830980000000004 C 28.86406 -34.830980000000004 28.86406 -34.830980000000004 28.86406 -34.830980000000004 L 28.86406 -34.830980000000004 C 27.19981 -36.461940000000006 25.150949999999998 -37.64663 22.9072 -38.275380000000006 C 22.11235 -38.498110000000004 20.498549999999998 -38.95033000000001 20.498549999999998 -38.95033000000001 C 13.7823 -40.832910000000005 6.207119999999998 -41.001850000000005 -1.4156800000000018 -40.33610000000001 C -8.289060000000003 -39.73580000000001 -15.387060000000002 -39.22678000000001 -20.790170000000003 -36.00770000000001 C -21.393120000000003 -35.64847000000001 -22.598150000000004 -35.024460000000005 -23.61567 -34.41093000000001 C -25.20324 -33.453680000000006 -26.48441 -31.725120000000008 -27.358110000000003 -31.064980000000006 C -27.358110000000003 -31.064980000000006 -29.441750000000003 -28.049640000000004 -29.982350000000004 -26.839340000000007 C -30.133870000000005 -26.500120000000006 -30.289500000000004 -26.121740000000006 -30.306320000000003 -25.76076000000001 C -30.354110000000002 -24.73533000000001 -30.20417 -23.68425000000001 -29.982350000000004 -22.780220000000007 C -29.572240000000004 -21.108850000000007 -28.300800000000002 -20.108590000000007 -26.666130000000003 -18.96139000000001 C -26.353490000000004 -18.74198000000001 -25.689840000000004 -18.48528000000001 -25.180410000000002 -18.32903000000001 L -25.180410000000002 -18.32903000000001 C -23.971030000000003 -17.95809000000001 -22.66271 -18.09599000000001 -21.557250000000003 -18.710930000000012 z" stroke-linecap="round" />
</g>
<g transform="matrix(1.8084885905 0 0 1.8084885905 74.4747406894 286.9701164461)" id="6PmzQWiX_AXCjMxw_w6RD"  >
<path style="stroke: rgb(255,255,255); stroke-width: 1; stroke-dasharray: none; stroke-linecap: butt; stroke-dashoffset: 0; stroke-linejoin: miter; stroke-miterlimit: 4; fill: rgb(255,255,255); fill-rule: nonzero; opacity: 1;" vector-effect="non-scaling-stroke"  transform=" translate(-0.0000020622, 0.0000178851)" d="M -13.80653 0.17814 C -13.909040000000001 -0.46936 -13.835560000000001 -1.1325100000000001 -13.59378 -1.74186 C -13.46244 -2.07288 -13.28255 -2.59244 -13.181880000000001 -2.73932 C -12.75045 -3.36877 -11.760740000000002 -4.02426 -11.760740000000002 -4.02426 C -11.023410000000002 -4.46944 -10.367130000000001 -5.07824 -9.518330000000002 -5.4117 C -8.797960000000003 -5.6947 -7.890350000000002 -5.71808 -7.1877400000000025 -5.91975 C -6.313100000000002 -6.1708 -5.691920000000002 -6.20261 -4.977000000000002 -6.3537799999999995 C -4.623470000000002 -6.42854 -3.9441500000000023 -6.349609999999999 -3.3759000000000023 -6.3537799999999995 C -2.3456800000000024 -6.361339999999999 -0.31396000000000246 -6.41958 0.49916999999999767 -6.3537799999999995 L 6.282809999999998 -5.91975 L 6.282809999999998 -5.91975 L 6.282809999999998 -5.91975 C 8.780759999999997 -5.59317 11.062999999999999 -4.334619999999999 12.672159999999998 -2.39632 L 13.043739999999998 -1.94874 L 13.043739999999998 -1.94874 C 13.647629999999998 -1.22133 13.931849999999997 -0.28071 13.831839999999998 0.6593900000000001 L 13.775679999999998 1.1872800000000001 L 13.775679999999998 1.1872800000000001 C 13.632589999999997 2.53234 13.022819999999998 3.78477 12.052319999999998 4.72699 L 12.052319999999998 4.72699 L 12.052319999999998 4.72699 C 11.301679999999998 5.45576 10.377459999999997 5.98088 9.367159999999998 6.2526399999999995 L 9.367159999999998 6.2526399999999995 L 9.367159999999998 6.2526399999999995 C 8.809089999999998 6.40276 8.224569999999998 6.426539999999999 7.6561499999999985 6.322259999999999 L -4.3277100000000015 4.123709999999999 L -9.587950000000001 4.123709999999999 L -9.587950000000001 4.123709999999999 C -11.657770000000001 4.123709999999999 -13.420200000000001 2.618359999999999 -13.743850000000002 0.573999999999999 z" stroke-linecap="round" />
</g>
<g transform="matrix(1.8084885905 0 0 1.8084885905 126.9424173325 252.6824054532)" id="dOANX9k5Mx6zvUw0gZcuf"  >
<path style="stroke: rgb(255,255,255); stroke-width: 1; stroke-dasharray: none; stroke-linecap: butt; stroke-dashoffset: 0; stroke-linejoin: miter; stroke-miterlimit: 4; fill: rgb(255,255,255); fill-rule: nonzero; opacity: 1;" vector-effect="non-scaling-stroke"  transform=" translate(0.000003463, -0.000001056)" d="M -4.79047 2.12362 C -5.71145 0.3089899999999999 -5.39146 -1.8887900000000002 -3.99127 -3.3654600000000006 L -3.62618 -3.7504900000000005 L -3.62618 -3.7504900000000005 C -2.16184 -5.29481 0.05984999999999996 -5.859770000000001 2.08402 -5.2025500000000005 L 2.4947100000000004 -5.069210000000001 L 2.4947100000000004 -5.069210000000001 C 3.0391600000000003 -4.892430000000001 3.5137800000000006 -4.548020000000001 3.8506700000000005 -4.0852200000000005 L 4.139390000000001 -3.6886100000000006 L 4.139390000000001 -3.6886100000000006 C 4.804880000000001 -2.7744300000000006 5.204400000000001 -1.6939200000000005 5.293710000000001 -0.5667000000000004 L 5.293710000000001 -0.5667000000000004 L 5.293710000000001 -0.5667000000000004 C 5.434050000000001 1.2044399999999995 4.743620000000001 2.9402799999999996 3.425130000000001 4.131169999999999 L 2.883280000000001 4.6205799999999995 L 2.883280000000001 4.6205799999999995 C 2.221190000000001 5.2185999999999995 1.345360000000001 5.5233799999999995 0.45505000000000084 5.46559 C -0.3360399999999991 5.4142399999999995 -0.9684299999999992 5.33971 -1.9057399999999993 5.02102 C -2.9998499999999995 4.64902 -3.1109599999999995 4.47385 -3.569939999999999 4.02868 L -3.569939999999999 4.02868 C -3.900689999999999 3.7078899999999995 -4.175929999999999 3.3344499999999995 -4.384459999999999 2.9235799999999994 z" stroke-linecap="round" />
</g>
<g transform="matrix(1.8084885905 0 0 1.8084885905 122.1653965318 293.6792257957)" id="0tZi8rKplyISFGOSGlxX2"  >
<path style="stroke: rgb(255,255,255); stroke-width: 1; stroke-dasharray: none; stroke-linecap: butt; stroke-dashoffset: 0; stroke-linejoin: miter; stroke-miterlimit: 4; fill: rgb(255,255,255); fill-rule: nonzero; opacity: 1;" vector-effect="non-scaling-stroke"  transform=" translate(0.000009116, 0.0000054904)" d="M 1.03271 -14.73163 C 0.14517999999999998 -14.73163 -0.71837 -14.443579999999999 -1.42817 -13.91076 C -2.08654 -13.416549999999999 -2.38916 -13.17105 -3.08871 -12.04914 C -3.72333 -11.03135 -3.8882399999999997 -10.44868 -4.13091 -9.6066 L -4.13091 -9.6066 C -4.47419 -8.41539 -4.69927 -7.19326 -4.80288 -5.95791 L -5.03555 -3.1838 L -5.03555 -3.1838 C -5.47371 2.04044 -4.501329999999999 7.28651 -2.2199199999999997 12.00666 L -2.08084 12.29442 L -2.08084 12.29442 C -1.4040099999999998 13.69476 -0.026049999999999685 14.62259 1.5260200000000004 14.72306 L 1.5647000000000004 14.72556 L 1.5647000000000004 14.72556 C 2.1347000000000005 14.762459999999999 2.7028900000000005 14.63021 3.1980200000000005 14.345419999999999 L 3.8148100000000005 13.990639999999999 L 3.8235500000000004 13.980369999999999 L 3.8235500000000004 13.980369999999999 C 4.698410000000001 12.95149 5.09405 11.59892 4.91157 10.26076 L 3.9778100000000003 3.4132 L 3.9778100000000003 -3.3924900000000004 L 3.9778100000000003 -3.3924900000000004 C 3.9778100000000003 -3.4118600000000003 3.9797700000000003 -3.4311800000000003 3.9836700000000005 -3.4501600000000003 L 5.05471 -8.66254 L 5.05471 -8.66254 C 5.14972 -9.124929999999999 5.16356 -9.60032 5.09562 -10.067450000000001 L 5.03099 -10.51177 L 5.03099 -10.51177 C 4.73719 -12.53166 3.27591 -14.186250000000001 1.30783 -14.72747 L 1.2927 -14.731630000000001 z" stroke-linecap="round" />
</g>
<g transform="matrix(1.8084885905 0 0 1.8084885905 180.2091650611 284.2500690907)" id="7oa4j_p_3bmgnRAGb4L6S"  >
<path style="stroke: rgb(255,255,255); stroke-width: 1; stroke-dasharray: none; stroke-linecap: butt; stroke-dashoffset: 0; stroke-linejoin: miter; stroke-miterlimit: 4; fill: rgb(255,255,255); fill-rule: nonzero; opacity: 1;" vector-effect="non-scaling-stroke"  transform=" translate(-0.0000020654, 0.0000240411)" d="M 21.08315 15.28949 C 21.47549 14.01872 21.13548 12.63516 20.198809999999998 11.690990000000001 C 19.26214 10.746830000000001 17.88133 10.395790000000002 16.60748 10.77799 L 3.6282799999999984 14.672170000000001 L 3.6282799999999984 14.672170000000001 C 0.3667299999999982 15.65074 -3.164760000000002 15.04832 -5.917450000000002 13.04381 C -8.670130000000002 11.0393 -10.327470000000002 7.863200000000001 -10.397280000000002 4.458730000000001 L -10.498110000000002 -0.45875999999999895 L -10.348190000000002 -1.6346199999999989 L -10.348190000000002 -1.6346199999999989 C -9.424180000000003 -8.88196 -3.6205000000000025 -14.532569999999998 3.648939999999998 -15.262609999999999 L 4.184409999999998 -15.316389999999998 L 4.184409999999998 -15.316389999999998 C 4.818219999999998 -15.38004 5.454299999999998 -15.219719999999999 5.982219999999998 -14.863269999999998 L 9.603669999999997 -12.418059999999999 L 10.017679999999997 -12.34119 L 10.017679999999997 -12.34119 C 11.127039999999997 -12.1352 12.272099999999996 -12.39987 13.178549999999998 -13.07179 C 14.084999999999997 -13.74371 14.671169999999998 -14.76234 14.796639999999998 -15.88367 L 14.796639999999998 -15.88367 L 14.796639999999998 -15.88367 C 14.915809999999999 -16.94868 14.719049999999998 -18.02521 14.230859999999998 -18.9792 L 14.173709999999998 -19.090889999999998 L 14.173709999999998 -19.090889999999998 C 12.744189999999998 -21.884379999999997 10.172679999999998 -23.919959999999996 7.125649999999998 -24.67008 L 7.043999999999998 -24.690179999999998 L 7.043999999999998 -24.690179999999998 C 2.9211399999999976 -25.705149999999996 -1.4176300000000017 -25.38346 -5.345730000000002 -23.771569999999997 L -5.345730000000002 -23.771569999999997 L -5.345730000000002 -23.771569999999997 C -12.984460000000002 -20.63704 -18.543530000000004 -13.882379999999998 -20.15002 -5.783329999999996 L -20.67622 -3.130529999999996 L -20.80263 -2.437839999999996 L -20.80263 -2.437839999999996 C -22.06317 4.469510000000004 -20.59656 11.596550000000004 -16.71112 17.444950000000006 L -16.09607 18.370730000000005 L -16.09607 18.370730000000005 L -16.09607 18.370730000000005 C -10.272310000000001 24.046560000000007 -1.9959900000000008 26.434000000000005 5.956019999999999 24.732010000000006 L 6.002679999999999 24.722020000000008 L 6.002679999999999 24.722020000000008 C 6.366749999999999 24.64410000000001 6.721829999999999 24.52887000000001 7.062289999999999 24.378180000000008 L 7.601189999999999 24.139650000000007 L 7.601189999999999 24.139650000000007 C 12.058799999999998 22.166610000000006 16.26756 19.673560000000005 20.13986 16.712390000000006 L 20.13986 16.712390000000006 L 20.13986 16.712390000000006 C 20.569 16.384220000000006 20.88524 15.930510000000007 21.04461 15.414310000000006 z" stroke-linecap="round" />
</g>
<g transform="matrix(1.8084885905 0 0 1.8084885905 252.8942394358 273.2218011989)" id="wt4RkGMef7K-2sae9WgeD"  >
<path style="stroke: rgb(255,255,255); stroke-width: 1; stroke-dasharray: none; stroke-linecap: butt; stroke-dashoffset: 0; stroke-linejoin: miter; stroke-miterlimit: 4; fill: rgb(255,255,255); fill-rule: nonzero; opacity: 1;" vector-effect="non-scaling-stroke"  transform=" translate(-0.0000152409, -0.0000028114)" d="M -2.5029 -22.2414 C -2.96314 -24.74052 -4.9453700000000005 -26.680139999999998 -7.453899999999999 -27.08598 L -7.630939999999999 -27.11462 L -7.630939999999999 -27.11462 C -8.479679999999998 -27.251929999999998 -9.341 -26.956989999999998 -9.927409999999998 -26.328239999999997 C -10.437949999999999 -25.780839999999998 -10.178619999999999 -26.180559999999996 -11.059729999999998 -24.362809999999996 C -11.370679999999998 -23.721309999999995 -11.654689999999999 -23.112899999999996 -11.908229999999998 -22.480459999999997 L -11.908229999999998 -22.480459999999997 C -13.697339999999997 -18.017649999999996 -14.616659999999998 -13.253909999999998 -14.616659999999998 -8.445829999999997 L -14.616659999999998 12.588690000000003 L -14.616659999999998 12.588690000000003 C -14.616659999999998 16.717410000000005 -13.939799999999998 20.818200000000004 -12.612999999999998 24.727920000000005 L -12.405809999999997 25.338460000000005 L -12.405809999999997 25.338460000000005 C -12.332109999999997 25.555630000000004 -12.184089999999998 25.739810000000006 -11.987849999999996 25.858500000000006 L -11.020339999999996 26.443680000000008 L -11.020339999999996 26.443680000000008 C -8.973659999999995 27.681580000000007 -6.331259999999996 27.252240000000008 -4.7817899999999955 25.43003000000001 L -4.7817899999999955 25.43003000000001 L -4.7817899999999955 25.43003000000001 C -4.622019999999996 25.24214000000001 -4.534299999999996 25.003550000000008 -4.534299999999996 24.756920000000008 C -4.534299999999996 23.137380000000007 -4.534299999999996 19.84922000000001 -4.534299999999996 19.84922000000001 C -4.335889999999996 16.43564000000001 -5.304669999999995 12.756620000000009 -4.033799999999996 9.58223000000001 C -3.263419999999996 7.65798000000001 -2.4104699999999957 5.629350000000009 -1.0422399999999956 4.31492000000001 C -0.7775499999999956 4.06064000000001 -0.20969999999999567 3.5594500000000098 0.3266800000000043 3.2699800000000097 C 0.5425400000000042 3.15348000000001 1.0718500000000044 2.9502400000000097 1.4416300000000044 2.7994000000000097 L 1.4416300000000044 2.7994000000000097 C 2.0093700000000045 2.5678100000000095 2.6544000000000043 2.6278300000000097 3.1696800000000045 2.9601800000000096 L 3.2630400000000046 3.0204000000000097 L 3.2630400000000046 3.0204000000000097 C 3.8664000000000045 3.4095700000000098 4.249100000000005 4.06214000000001 4.294190000000005 4.77871000000001 L 4.996910000000005 15.946570000000008 L 4.996910000000005 15.946570000000008 C 5.115140000000005 17.825540000000007 5.767270000000005 19.63172000000001 6.876640000000005 21.15283000000001 L 6.953130000000005 21.25771000000001 L 6.953130000000005 21.25771000000001 C 7.981120000000005 22.66723000000001 9.938960000000005 23.01297000000001 11.387540000000005 22.04080000000001 L 12.287400000000005 21.436890000000012 L 12.287400000000005 21.436890000000012 C 13.245620000000006 20.79381000000001 13.880890000000004 19.76959000000001 14.031200000000005 18.625410000000013 L 14.341300000000006 16.264920000000014 L 14.341300000000006 16.264920000000014 C 14.985780000000005 11.359080000000013 14.495490000000006 6.3707700000000145 12.908220000000005 1.6842800000000135 L 12.552050000000005 0.6326700000000136 L 12.504970000000005 0.5449200000000136 L 12.504970000000005 0.5449200000000136 C 10.925000000000006 -2.4000999999999864 8.188160000000005 -4.552559999999986 4.9537300000000055 -5.3939599999999865 C 1.7193000000000054 -6.235349999999986 -1.7194899999999942 -5.689399999999987 -4.534289999999995 -3.8876199999999868 L -4.534289999999995 -3.8876199999999868 L -4.033789999999995 -17.297629999999987 L -3.106969999999995 -18.396079999999987 L -3.106969999999995 -18.396079999999987 C -2.425039999999995 -19.204289999999986 -2.140829999999995 -20.275389999999987 -2.332349999999995 -21.315369999999987 z" stroke-linecap="round" />
</g>
<g transform="matrix(1.8084885905 0 0 1.8084885905 498.3771407182 269.5346362738)" id="V1OTwsIR_iG9wBDoZHlm1"  >
<path style="stroke: rgb(255,255,255); stroke-width: 1; stroke-dasharray: none; stroke-linecap: butt; stroke-dashoffset: 0; stroke-linejoin: miter; stroke-miterlimit: 4; fill: rgb(255,255,255); fill-rule: nonzero; opacity: 1;" vector-effect="non-scaling-stroke"  transform=" translate(-0.0000152409, -0.0000028114)" d="M -2.5029 -22.2414 C -2.96314 -24.74052 -4.9453700000000005 -26.680139999999998 -7.453899999999999 -27.08598 L -7.630939999999999 -27.11462 L -7.630939999999999 -27.11462 C -8.479679999999998 -27.251929999999998 -9.341 -26.956989999999998 -9.927409999999998 -26.328239999999997 C -10.437949999999999 -25.780839999999998 -10.178619999999999 -26.180559999999996 -11.059729999999998 -24.362809999999996 C -11.370679999999998 -23.721309999999995 -11.654689999999999 -23.112899999999996 -11.908229999999998 -22.480459999999997 L -11.908229999999998 -22.480459999999997 C -13.697339999999997 -18.017649999999996 -14.616659999999998 -13.253909999999998 -14.616659999999998 -8.445829999999997 L -14.616659999999998 12.588690000000003 L -14.616659999999998 12.588690000000003 C -14.616659999999998 16.717410000000005 -13.939799999999998 20.818200000000004 -12.612999999999998 24.727920000000005 L -12.405809999999997 25.338460000000005 L -12.405809999999997 25.338460000000005 C -12.332109999999997 25.555630000000004 -12.184089999999998 25.739810000000006 -11.987849999999996 25.858500000000006 L -11.020339999999996 26.443680000000008 L -11.020339999999996 26.443680000000008 C -8.973659999999995 27.681580000000007 -6.331259999999996 27.252240000000008 -4.7817899999999955 25.43003000000001 L -4.7817899999999955 25.43003000000001 L -4.7817899999999955 25.43003000000001 C -4.622019999999996 25.24214000000001 -4.534299999999996 25.003550000000008 -4.534299999999996 24.756920000000008 C -4.534299999999996 23.137380000000007 -4.534299999999996 19.84922000000001 -4.534299999999996 19.84922000000001 C -4.335889999999996 16.43564000000001 -5.304669999999995 12.756620000000009 -4.033799999999996 9.58223000000001 C -3.263419999999996 7.65798000000001 -2.4104699999999957 5.629350000000009 -1.0422399999999956 4.31492000000001 C -0.7775499999999956 4.06064000000001 -0.20969999999999567 3.5594500000000098 0.3266800000000043 3.2699800000000097 C 0.5425400000000042 3.15348000000001 1.0718500000000044 2.9502400000000097 1.4416300000000044 2.7994000000000097 L 1.4416300000000044 2.7994000000000097 C 2.0093700000000045 2.5678100000000095 2.6544000000000043 2.6278300000000097 3.1696800000000045 2.9601800000000096 L 3.2630400000000046 3.0204000000000097 L 3.2630400000000046 3.0204000000000097 C 3.8664000000000045 3.4095700000000098 4.249100000000005 4.06214000000001 4.294190000000005 4.77871000000001 L 4.996910000000005 15.946570000000008 L 4.996910000000005 15.946570000000008 C 5.115140000000005 17.825540000000007 5.767270000000005 19.63172000000001 6.876640000000005 21.15283000000001 L 6.953130000000005 21.25771000000001 L 6.953130000000005 21.25771000000001 C 7.981120000000005 22.66723000000001 9.938960000000005 23.01297000000001 11.387540000000005 22.04080000000001 L 12.287400000000005 21.436890000000012 L 12.287400000000005 21.436890000000012 C 13.245620000000006 20.79381000000001 13.880890000000004 19.76959000000001 14.031200000000005 18.625410000000013 L 14.341300000000006 16.264920000000014 L 14.341300000000006 16.264920000000014 C 14.985780000000005 11.359080000000013 14.495490000000006 6.3707700000000145 12.908220000000005 1.6842800000000135 L 12.552050000000005 0.6326700000000136 L 12.504970000000005 0.5449200000000136 L 12.504970000000005 0.5449200000000136 C 10.925000000000006 -2.4000999999999864 8.188160000000005 -4.552559999999986 4.9537300000000055 -5.3939599999999865 C 1.7193000000000054 -6.235349999999986 -1.7194899999999942 -5.689399999999987 -4.534289999999995 -3.8876199999999868 L -4.534289999999995 -3.8876199999999868 L -4.033789999999995 -17.297629999999987 L -3.106969999999995 -18.396079999999987 L -3.106969999999995 -18.396079999999987 C -2.425039999999995 -19.204289999999986 -2.140829999999995 -20.275389999999987 -2.332349999999995 -21.315369999999987 z" stroke-linecap="round" />
</g>
<g transform="matrix(1.8084885905 0 0 1.8084885905 316.7365507239 286.9701164461)" id="mTA0VTFkHURzt4HtNboXE"  >
<path style="stroke: rgb(255,255,255); stroke-width: 1; stroke-dasharray: none; stroke-linecap: butt; stroke-dashoffset: 0; stroke-linejoin: miter; stroke-miterlimit: 4; fill: rgb(255,255,255); fill-rule: nonzero; opacity: 1;" vector-effect="non-scaling-stroke"  transform=" translate(0.0000054033, 0.0000025689)" d="M 5.63454 -14.27057 L 3.05595 -14.575569999999999 L 3.05595 -14.575569999999999 C -1.8922600000000003 -15.160839999999999 -6.8358099999999995 -13.446349999999999 -10.35912 -9.92305 L -11.08745 -9.19472 L -11.08745 -9.19472 C -12.38451 -7.89766 -13.32224 -6.2858 -13.8087 -4.5171600000000005 L -14.99526 -0.2031900000000002 L -15.29318 1.5409899999999999 L -15.29318 1.5409899999999999 C -16.357 7.76913 -13.09499 13.93311 -7.34695 16.55638 L -7.1714199999999995 16.636490000000002 L -7.005959999999999 16.65922 L -7.005959999999999 16.65922 C -4.113739999999999 17.05647 -1.2478999999999987 15.77124 0.3791100000000007 13.347280000000001 L 3.8428200000000006 8.186940000000002 L 7.7855300000000005 11.661690000000002 L 7.7855300000000005 11.661690000000002 C 8.863570000000001 12.611780000000001 10.281930000000001 13.082080000000001 11.71405 12.964300000000001 C 13.14617 12.846520000000002 14.46864 12.150830000000001 15.37698 11.037380000000002 L 15.37698 11.037380000000002 L 15.37698 11.037380000000002 L 15.37698 11.037380000000002 C 15.73165 9.231800000000003 15.26349 7.362080000000002 14.09982 5.936670000000002 L 14.09982 5.936670000000002 L 14.09982 5.936670000000002 C 12.69169 4.211830000000003 12.00438 2.009670000000002 12.18142 -0.20990999999999804 L 13.192229999999999 -12.882859999999997 L 13.192229999999999 -12.882859999999997 C 13.229739999999998 -13.353189999999998 13.153759999999998 -13.825649999999998 12.970659999999999 -14.260509999999996 L 12.889249999999999 -14.453869999999997 L 12.889249999999999 -14.453869999999997 C 12.389739999999998 -15.640209999999996 11.312449999999998 -16.484039999999997 10.040999999999999 -16.684869999999997 C 8.769549999999999 -16.885699999999996 7.484629999999999 -16.414999999999996 6.643779999999999 -15.440379999999996 z" stroke-linecap="round" />
</g>
<g transform="matrix(1.8084885905 0 0 1.8084885905 406.4041708618 256.8243493979)" id="3MXH9LUB6MjbYL0OiP_bM"  >
<path style="stroke: rgb(255,255,255); stroke-width: 1; stroke-dasharray: none; stroke-linecap: butt; stroke-dashoffset: 0; stroke-linejoin: miter; stroke-miterlimit: 4; fill: rgb(255,255,255); fill-rule: nonzero; opacity: 1;" vector-effect="non-scaling-stroke"  transform=" translate(0.0000115103, -5.692e-7)" d="M 26.08557 30.20967 C 27.53789 28.73187 28.469170000000002 26.821099999999998 28.738390000000003 24.76668 L 28.826030000000003 24.09787 L 28.826030000000003 24.09787 C 28.966480000000004 23.02612 28.714040000000004 21.93978 28.115410000000004 21.03977 L 27.563640000000003 20.21022 L 27.563640000000003 20.21022 C 26.718810000000005 18.94008 25.198420000000002 18.29551 23.698130000000003 18.57146 L 22.351280000000003 18.81919 L 22.351280000000003 18.81919 C 21.154590000000002 19.039299999999997 20.00297 19.4574 18.943790000000003 20.05629 L 12.408000000000003 23.75184 L 12.408000000000003 23.75184 C 8.211770000000003 26.12453 3.4731600000000036 27.371450000000003 -1.3474199999999978 27.371450000000003 L -1.416309999999998 27.371450000000003 L -3.2367899999999983 27.371450000000003 L -4.072379999999998 27.237750000000002 L -4.072379999999998 27.237750000000002 C -10.972959999999997 26.133580000000002 -16.049349999999997 20.18034 -16.049349999999997 13.191980000000003 L -16.049349999999997 8.013890000000004 L -15.317469999999997 3.2343100000000033 L -15.317469999999997 3.2343100000000033 C -14.597919999999997 -1.4647299999999968 -13.218179999999997 -6.038559999999996 -11.219149999999996 -10.351629999999997 L -11.018659999999995 -10.784209999999996 L -11.018659999999995 -10.784209999999996 C -9.924609999999996 -13.144709999999996 -8.493409999999995 -15.333729999999996 -6.769899999999995 -17.282689999999995 L -2.028869999999995 -22.643889999999995 L -2.028869999999995 -22.643889999999995 C 0.620270000000005 -25.639559999999996 4.111590000000005 -27.766279999999995 7.988700000000004 -28.746039999999994 L 11.323470000000004 -29.588749999999994 L 11.323470000000004 -29.588749999999994 C 13.073240000000004 -30.030919999999995 14.919750000000004 -29.886879999999994 16.579790000000003 -29.178699999999992 L 16.600040000000003 -29.170059999999992 L 16.600040000000003 -29.170059999999992 C 17.803880000000003 -28.656499999999994 18.81987 -27.783879999999993 19.509270000000004 -26.671349999999993 L 21.101920000000003 -24.10119999999999 L 21.164120000000004 -24.057349999999992 L 21.164120000000004 -24.057349999999992 C 21.943300000000004 -23.508099999999992 22.925510000000003 -23.33160999999999 23.847160000000002 -23.575229999999994 L 24.61202 -23.777409999999993 L 24.61202 -23.777409999999993 L 24.61202 -23.777409999999993 C 25.63483 -24.375169999999994 26.490170000000003 -25.221469999999993 27.098760000000002 -26.237869999999994 L 27.700090000000003 -27.242139999999992 L 27.700090000000003 -28.008099999999992 L 27.700090000000003 -28.008099999999992 C 27.700090000000003 -31.85963999999999 25.77924 -35.45748999999999 22.578870000000002 -37.60038999999999 L 19.81716 -39.44957999999999 L 19.81716 -39.44957999999999 L 19.81716 -39.44957999999999 C 12.83277 -41.24026999999999 5.445320000000001 -40.57872999999999 -1.1097900000000003 -37.57558999999999 L -1.5596800000000002 -37.36947999999999 L -1.5596800000000002 -37.36947999999999 C -4.33478 -36.09809999999999 -6.92203 -34.45145999999999 -9.248850000000001 -32.47572999999999 L -9.248850000000001 -32.47572999999999 L -9.248850000000001 -32.47572999999999 C -15.300620000000002 -27.337109999999992 -20.253660000000004 -21.03053999999999 -23.81163 -13.93333999999999 L -23.81163 -13.93333999999999 L -23.81163 -13.93333999999999 C -25.321630000000003 -10.92127999999999 -26.43702 -7.72711999999999 -27.13023 -4.42983999999999 L -28.23926 0.8453500000000105 L -28.86398 12.503090000000011 L -28.86398 14.62971000000001 L -28.69421 16.72988000000001 L -28.69421 16.72988000000001 C -27.709970000000002 28.905420000000007 -18.062160000000002 38.58188000000001 -5.8896000000000015 39.60222000000001 C -5.191930000000001 39.66070000000001 -4.629150000000001 39.74025000000001 -3.7815300000000014 39.84111000000001 C -3.1977300000000013 39.91058000000001 -3.1855000000000016 39.89753000000001 -2.8955300000000013 39.949270000000006 L -2.8955300000000013 39.949270000000006 C 5.4905599999999986 41.445620000000005 14.12417 39.45671000000001 21.01033 34.44211000000001 C 21.47817 34.101420000000005 21.86748 33.78088 22.39325 33.36359000000001 C 25.12455 31.19586000000001 24.962329999999998 31.35259000000001 26.085549999999998 30.20966000000001 z" stroke-linecap="round" />
</g>
<g transform="matrix(1.8084885905 0 0 1.8084885905 556.6851731533 283.0927706633)" id="sMcM8_wyVlS-LxJgr3GgJ"  >
<path style="stroke: rgb(255,255,255); stroke-width: 1; stroke-dasharray: none; stroke-linecap: butt; stroke-dashoffset: 0; stroke-linejoin: miter; stroke-miterlimit: 4; fill: rgb(255,255,255); fill-rule: nonzero; opacity: 1;" vector-effect="non-scaling-stroke"  transform=" translate(-0.0000052176, 0.000007506)" d="M 2.17079 -7.18763 C 2.33049 -7.18763 2.47196 -7.08464 2.52103 -6.93266 C 2.57009 -6.78068 2.51555 -6.61441 2.38599 -6.5210300000000005 L -0.9478399999999998 -4.118040000000001 L -0.9478399999999998 -4.118040000000001 C -1.74829 -3.5410800000000004 -2.2639499999999995 -2.6494800000000005 -2.3648499999999997 -1.6679400000000006 C -2.46575 -0.6864000000000007 -2.1422799999999995 0.29146999999999945 -1.4759599999999997 1.0192099999999993 L -0.8964499999999997 1.6521399999999993 L -0.8964499999999997 1.6521399999999993 C -0.5081899999999997 2.076179999999999 0.022970000000000268 2.341919999999999 0.5951300000000002 2.398369999999999 L 0.5951300000000002 2.398369999999999 L 0.5951300000000002 2.398369999999999 C 3.40062 2.675149999999999 6.21153 1.927589999999999 8.508880000000001 0.29369999999999896 L 8.994940000000001 -0.051990000000001035 L 8.994940000000001 -0.051990000000001035 C 9.738280000000001 -0.5806600000000011 10.398060000000001 -1.217900000000001 10.952240000000002 -1.9424200000000011 L 10.952240000000002 -1.9424200000000011 L 10.952240000000002 -1.9424200000000011 C 12.282680000000001 -3.681820000000001 12.802220000000002 -5.908740000000002 12.378840000000002 -8.057310000000001 C 11.955460000000002 -10.20587 10.629920000000002 -12.069220000000001 8.739060000000002 -13.173850000000002 L 6.221390000000002 -14.644660000000002 L 5.743480000000003 -14.884100000000002 L 5.743480000000003 -14.884100000000002 C 3.9853600000000027 -15.764950000000002 1.9813700000000027 -16.026500000000002 0.05607000000000273 -15.626400000000002 L -1.8235599999999972 -15.235790000000001 L -1.8235599999999972 -15.235790000000001 C -6.099589999999997 -14.347180000000002 -9.658419999999998 -11.399390000000002 -11.327599999999997 -7.363560000000001 C -11.855379999999997 -6.087460000000002 -12.208639999999997 -5.027180000000001 -12.677809999999997 -3.4027100000000012 C -13.796319999999998 0.4700299999999986 -13.689339999999998 0.7029499999999991 -13.671249999999997 2.764179999999999 L -13.671249999999997 2.764179999999999 C -13.666869999999998 3.263409999999999 -13.604819999999997 3.7604599999999992 -13.486349999999996 4.245439999999999 L -13.071949999999996 5.94185 L -13.071949999999996 5.94185 C -11.402969999999996 12.7741 -4.580369999999995 17.02047 2.286680000000004 15.50101 L 3.310810000000004 15.2744 L 3.720070000000004 15.18348 L 3.720070000000004 15.18348 C 7.518730000000004 14.33953 10.884170000000005 12.15061 13.195780000000003 9.02035 L 13.195780000000003 9.02035 L 13.195780000000003 9.02035 C 13.698510000000002 8.33958 13.820630000000003 7.4499200000000005 13.519940000000002 6.658860000000001 L 13.046570000000003 5.413530000000001 L 13.046570000000003 5.413530000000001 C 12.908460000000003 5.050190000000001 12.654180000000002 4.742660000000001 12.323270000000003 4.538730000000001 L 12.323270000000003 4.538730000000001 L 12.323270000000003 4.538730000000001 C 11.619420000000003 4.104980000000001 10.752230000000003 4.028590000000001 9.983390000000004 4.332600000000001 L 2.4928700000000035 7.2944700000000005 L 2.4928700000000035 7.2944700000000005 C 0.9710400000000035 7.8962200000000005 -0.7476399999999965 7.7266 -2.1224699999999963 6.8389500000000005 C -3.4972999999999965 5.95131 -4.359269999999997 4.45476 -4.437209999999997 2.8201400000000003 L -4.571669999999997 -0.000019999999999686935 L -4.571669999999997 -1.8462999999999996 L -4.509869999999997 -2.5455799999999997 L -4.509869999999997 -2.5455799999999997 C -4.277669999999997 -5.17291 -2.076999999999997 -7.18765 0.5605700000000029 -7.18765 z" stroke-linecap="round" />
</g>
<g transform="matrix(1.8084885905 0 0 1.8084885905 611.6457973416 282.4891174019)" id="rHh4iGJNRVb3qurbVjmcS"  >
<path style="stroke: rgb(255,255,255); stroke-width: 1; stroke-dasharray: none; stroke-linecap: butt; stroke-dashoffset: 0; stroke-linejoin: miter; stroke-miterlimit: 4; fill: rgb(255,255,255); fill-rule: nonzero; opacity: 1;" vector-effect="non-scaling-stroke"  transform=" translate(-0.0000046059, 0.0000036573)" d="M 9.60337 -3.06322 L 9.60337 -3.06322 L 9.60337 -3.06322 C 8.32514 -3.5231199999999996 6.97694 -3.75828 5.6184899999999995 -3.75828 L 3.6858299999999993 -3.75828 C 3.6858299999999993 -3.75828 2.9311099999999994 -16.07944 5.0694799999999995 -16.07944 C 6.751009999999999 -16.07944 7.589589999999999 -15.460930000000001 8.707329999999999 -14.867900000000002 L 8.707329999999999 -14.867900000000002 C 9.258109999999999 -14.575680000000002 9.940059999999999 -14.734780000000002 10.304659999999998 -15.240560000000002 L 10.972569999999997 -16.150350000000003 L 10.972569999999997 -16.150350000000003 C 11.835029999999998 -17.325150000000004 12.079389999999997 -18.84324 11.629129999999998 -20.229330000000004 L 11.629129999999998 -20.229330000000004 L 11.629129999999998 -20.229330000000004 C 11.070199999999998 -21.949970000000004 9.659479999999999 -23.258040000000005 7.901589999999999 -23.685630000000003 L 7.671549999999999 -23.741590000000002 L 7.671549999999999 -23.741590000000002 L 7.671549999999999 -23.741590000000002 C 3.796489999999999 -24.68417 -0.28854000000000113 -23.51582 -3.079180000000002 -20.66681 L -3.833270000000002 -19.89695 L -3.833270000000002 -19.89695 C -4.4340100000000024 -19.283640000000002 -4.918650000000002 -18.56655 -5.263680000000002 -17.78043 L -5.263680000000002 -17.78043 L -5.263680000000002 -17.78043 C -6.712220000000002 -14.48011 -7.2696200000000015 -10.857529999999999 -6.880200000000002 -7.27441 L -6.880200000000002 -7.27441 L -6.468260000000003 -2.060549999999999 L -9.778460000000003 -0.34202999999999917 L -9.778460000000003 -0.34202999999999917 C -10.753500000000003 0.16417000000000082 -11.466690000000003 1.0618000000000007 -11.739400000000003 2.1260200000000005 C -12.012110000000003 3.19024 -11.818500000000004 4.32024 -11.207070000000003 5.23298 L -11.098480000000004 5.395090000000001 L -11.098480000000004 5.395090000000001 C -10.817390000000003 5.814690000000001 -10.360880000000003 6.083850000000001 -9.857650000000003 6.12668 L -4.741840000000003 6.56207 L 1.0191399999999966 22.16105 L 1.0191399999999966 22.16105 C 1.3930899999999966 23.17358 2.2969399999999967 23.8958 3.3670299999999966 24.03711 C 4.437109999999997 24.17842 5.497469999999996 23.71558 6.121429999999997 22.834829999999997 L 6.121429999999997 22.834829999999997 L 6.121429999999997 22.834829999999997 C 6.655199999999996 22.081389999999995 6.861829999999997 21.144219999999997 6.694389999999997 20.236179999999997 L 3.6858399999999967 3.9205599999999983 L 8.619229999999996 3.1948899999999982 C 9.853299999999997 3.0133699999999983 10.828109999999997 2.3236599999999985 11.410079999999997 1.2204099999999982 C 11.975469999999998 0.1485999999999983 12.008949999999997 -1.0035300000000016 11.506849999999996 -2.1064200000000017 L 11.358789999999997 -2.4316400000000016 z" stroke-linecap="round" />
</g>
<g transform="matrix(1.4931728176 0 0 1.4931728176 314.9254007875 286.9701164461)" id="RRh4pU2zn5fIaNLfpuI6E"  >
<path style="stroke: rgb(255,255,255); stroke-width: 1; stroke-dasharray: none; stroke-linecap: butt; stroke-dashoffset: 0; stroke-linejoin: miter; stroke-miterlimit: 4; fill: rgb(225,157,96); fill-rule: nonzero; opacity: 1;"  transform=" translate(0.0000034492, 0.0000066381)" d="M -3.84489 8.05065 C -0.10755999999999988 4.338189999999999 2.90288 -0.04017000000000159 5.031310000000001 -4.85886 L 5.946830000000001 -6.93156 L 5.946830000000001 -6.93156 C 6.132010000000001 -7.3508000000000004 6.027700000000001 -7.84152 5.6880000000000015 -8.14919 C 5.348300000000002 -8.45686 4.849680000000001 -8.512220000000001 4.450770000000001 -8.286560000000001 L 0.4950300000000012 -6.048840000000002 L 0.4950300000000012 -6.048840000000002 C -3.1947499999999986 -3.961580000000002 -5.580519999999998 -0.1517500000000016 -5.847229999999998 4.079089999999997 L -6.034969999999998 7.057209999999998 L -6.034969999999998 7.057209999999998 C -6.068579999999998 7.590359999999998 -5.7691399999999975 8.088779999999998 -5.282639999999998 8.309459999999998 C -4.796149999999998 8.530139999999998 -4.223889999999998 8.427119999999999 -3.8448899999999977 8.050649999999997 z" stroke-linecap="round" />
</g>
</svg>